<?xml version="1.0" standalone="no"?>
<!DOCTYPE svg PUBLIC "-//W3C//DTD SVG 20010904//EN"
 "http://www.w3.org/TR/2001/REC-SVG-20010904/DTD/svg10.dtd">
<svg version="1.0" xmlns="http://www.w3.org/2000/svg"
 width="1024.000000pt" height="1024.000000pt" viewBox="0 0 1024.000000 1024.000000"
 preserveAspectRatio="xMidYMid meet">

<g transform="translate(0.000000,1024.000000) scale(0.100000,-0.100000)"
fill="white" stroke="none">
<path d="M5295 9870 c347 -21 630 -67 945 -155 90 -25 178 -52 194 -60 16 -8 36
-15 45 -15 9 0 23 -5 31 -11 11 -8 2 -9 -35 -5 -29 3 -42 1 -30 -3 11 -4 20
-12 20 -17 0 -5 4 -14 8 -21 5 -9 -3 -11 -30 -8 -21 3 -30 2 -20 -1 26 -8 22
-35 -5 -29 -13 2 -79 18 -148 34 -156 37 -375 77 -500 91 -52 6 -142 15 -200
22 -136 15 -611 14 -765 -1 -417 -42 -771 -120 -1130 -248 -267 -96 -658 -283
-648 -310 4 -10 0 -13 -18 -8 -18 4 -55 -13 -151 -72 -636 -389 -1147 -906
-1530 -1548 -55 -94 -73 -131 -63 -133 20 -5 19 -22 -1 -22 -8 0 -12 -4 -9
-10 3 -5 0 -7 -8 -4 -23 8 -185 -334 -272 -576 -122 -339 -195 -654 -240
-1040 -23 -190 -31 -622 -16 -817 83 -1078 535 -2064 1291 -2813 336 -334 645
-559 1110 -812 127 -69 394 -184 560 -241 344 -118 629 -182 1012 -228 242
-29 695 -32 923 -6 393 46 682 111 1063 242 172 59 479 197 659 298 46 25 85
41 88 36 4 -5 -1 -9 -9 -9 -9 0 -16 -6 -16 -14 0 -8 -7 -17 -16 -20 -8 -3 -13
-10 -10 -14 7 -12 -43 -34 -56 -26 -6 4 -8 3 -5 -3 4 -5 -6 -16 -21 -24 -15
-7 -35 -20 -45 -28 -14 -12 -17 -12 -17 0 -1 9 -6 7 -19 -7 -23 -28 -99 -67
-113 -58 -6 4 -8 3 -5 -3 13 -22 -341 -176 -600 -262 -312 -103 -581 -163
-930 -208 -111 -14 -212 -18 -523 -18 -415 1 -525 10 -860 71 -686 126 -1366
433 -1946 880 -351 269 -674 607 -937 977 -483 679 -762 1445 -837 2297 -16
173 -16 577 -1 745 77 865 356 1617 857 2315 411 572 1027 1095 1669 1417 721
361 1532 530 2310 483z m-1905 -244 c0 -3 -4 -8 -10 -11 -5 -3 -10 -1 -10 4 0
6 5 11 10 11 6 0 10 -2 10 -4z m3160 -16 c0 -5 -4 -10 -10 -10 -5 0 -10 5 -10
10 0 6 5 10 10 10 6 0 10 -4 10 -10z m-3735 -160 c3 -5 1 -10 -4 -10 -6 0 -11
5 -11 10 0 6 2 10 4 10 3 0 8 -4 11 -10z m1305 -200 c0 -5 -2 -10 -4 -10 -3 0
-8 5 -11 10 -3 6 -1 10 4 10 6 0 11 -4 11 -10z m3160 -20 c0 -4 -7 -7 -15 -6
-23 3 -26 12 -5 13 11 1 20 -2 20 -7z m-510 -54 c0 -3 -4 -8 -10 -11 -5 -3
-10 -1 -10 4 0 6 5 11 10 11 6 0 10 -2 10 -4z m330 0 c0 -3 -4 -8 -10 -11 -5
-3 -10 -1 -10 4 0 6 5 11 10 11 6 0 10 -2 10 -4z m-2060 -26 c0 -5 -2 -10 -4
-10 -3 0 -8 5 -11 10 -3 6 -1 10 4 10 6 0 11 -4 11 -10z m2705 -10 c3 -5 1
-10 -4 -10 -6 0 -11 5 -11 10 0 6 2 10 4 10 3 0 8 -4 11 -10z m-495 -24 c0 -3
-4 -8 -10 -11 -5 -3 -10 -1 -10 4 0 6 5 11 10 11 6 0 10 -2 10 -4z m-4205 -45
c-2 -2 -11 3 -19 12 -8 8 -12 17 -9 21 3 3 12 -2 19 -12 7 -9 11 -19 9 -21z
m39 10 c-7 -8 -35 9 -29 19 4 6 11 5 20 -3 7 -6 11 -14 9 -16z m-1254 5 c0 -3
-4 -8 -10 -11 -5 -3 -10 -1 -10 4 0 6 5 11 10 11 6 0 10 -2 10 -4z m1247 -52
c-3 -3 -12 -4 -19 -1 -8 3 -5 6 6 6 11 1 17 -2 13 -5z m-1067 -54 c0 -5 -4
-10 -10 -10 -5 0 -10 5 -10 10 0 6 5 10 10 10 6 0 10 -4 10 -10z m-1826 -15
c3 -8 1 -15 -4 -15 -6 0 -10 7 -10 15 0 8 2 15 4 15 2 0 6 -7 10 -15z m1171
-23 c-3 -3 -11 0 -18 7 -9 10 -8 11 6 5 10 -3 15 -9 12 -12z m195 -86 c0 -3
-4 -8 -10 -11 -5 -3 -10 -1 -10 4 0 6 5 11 10 11 6 0 10 -2 10 -4z m-103 -28
c-3 -8 -6 -5 -6 6 -1 11 2 17 5 13 3 -3 4 -12 1 -19z m173 12 c0 -5 -2 -10 -4
-10 -3 0 -8 5 -11 10 -3 6 -1 10 4 10 6 0 11 -4 11 -10z m-920 -60 c0 -5 -4
-10 -10 -10 -5 0 -10 5 -10 10 0 6 5 10 10 10 6 0 10 -4 10 -10z m790 6 c0 -3
-4 -8 -10 -11 -5 -3 -10 -1 -10 4 0 6 5 11 10 11 6 0 10 -2 10 -4z m1610 -56
c0 -5 -2 -10 -4 -10 -3 0 -8 5 -11 10 -3 6 -1 10 4 10 6 0 11 -4 11 -10z m590
0 c0 -5 -4 -10 -10 -10 -5 0 -10 5 -10 10 0 6 5 10 10 10 6 0 10 -4 10 -10z
m-666 -71 c-3 -6 0 -15 7 -20 11 -7 10 -9 -3 -9 -11 0 -18 8 -18 20 0 11 5 20
11 20 5 0 7 -5 3 -11z m-694 -109 c0 -5 -5 -10 -11 -10 -5 0 -7 5 -4 10 3 6 8
10 11 10 2 0 4 -4 4 -10z m760 -40 c0 -5 -2 -10 -4 -10 -3 0 -8 5 -11 10 -3 6
-1 10 4 10 6 0 11 -4 11 -10z m2085 -180 c3 -5 1 -10 -4 -10 -6 0 -11 5 -11
10 0 6 2 10 4 10 3 0 8 -4 11 -10z m-2550 -130 c3 -5 1 -10 -4 -10 -6 0 -11 5
-11 10 0 6 2 10 4 10 3 0 8 -4 11 -10z m725 -80 c0 -5 -2 -10 -4 -10 -3 0 -8
5 -11 10 -3 6 -1 10 4 10 6 0 11 -4 11 -10z m1010 -4 c0 -3 -4 -8 -10 -11 -5
-3 -10 -1 -10 4 0 6 5 11 10 11 6 0 10 -2 10 -4z m50 -87 c0 -6 -4 -7 -10 -4
-5 3 -10 11 -10 16 0 6 5 7 10 4 6 -3 10 -11 10 -16z m1296 -23 c29 -29 34
-41 34 -79 0 -40 -9 -57 -83 -163 -97 -139 -396 -554 -565 -787 -399 -547
-717 -995 -952 -1337 -286 -416 -667 -998 -720 -1099 -11 -22 -11 -23 6 -17
33 13 137 35 249 53 90 15 172 18 455 18 373 0 472 -7 768 -56 208 -34 328
-63 454 -109 94 -34 133 -63 144 -106 17 -66 -42 -82 -110 -30 -218 166 -1285
183 -1846 29 -30 -8 -104 -30 -164 -50 -120 -38 -144 -37 -182 4 -38 42 -27
115 22 148 57 37 290 379 669 980 115 182 292 463 395 625 103 162 319 507
480 765 161 259 348 558 415 665 67 107 167 267 222 355 117 186 157 225 230
225 38 0 50 -5 79 -34z m400 -126 c8 0 14 -4 14 -9 0 -5 -9 -7 -20 -4 -11 3
-20 13 -19 22 0 10 2 11 6 4 2 -7 11 -13 19 -13z m44 -20 c0 -5 -2 -10 -4 -10
-3 0 -8 5 -11 10 -3 6 -1 10 4 10 6 0 11 -4 11 -10z m27 -12 c-3 -8 -6 -5 -6
6 -1 11 2 17 5 13 3 -3 4 -12 1 -19z m-7 -92 c0 -3 -4 -8 -10 -11 -5 -3 -10
-1 -10 4 0 6 5 11 10 11 6 0 10 -2 10 -4z m2395 -16 c3 -6 -1 -7 -9 -4 -18 7
-21 14 -7 14 6 0 13 -4 16 -10z m-1445 -94 c0 -3 -4 -8 -10 -11 -5 -3 -10 -1
-10 4 0 6 5 11 10 11 6 0 10 -2 10 -4z m-4255 -46 c3 -5 1 -10 -4 -10 -6 0
-11 5 -11 10 0 6 2 10 4 10 3 0 8 -4 11 -10z m995 -138 c42 -43 55 -99 54
-247 -1 -231 -56 -497 -210 -1019 -66 -224 -401 -1234 -563 -1696 -83 -238
-90 -255 -114 -258 -44 -5 -51 25 -27 126 43 181 138 487 345 1112 251 756
330 1011 390 1250 61 240 76 333 82 491 5 118 3 137 -11 152 -16 15 -20 15
-46 2 -45 -23 -240 -237 -365 -400 -279 -363 -903 -1280 -891 -1310 4 -11 22
-15 69 -15 84 0 333 -26 468 -49 144 -25 189 -48 145 -76 -10 -6 -42 -5 -93 3
-43 6 -139 21 -213 32 -226 34 -428 23 -466 -27 -46 -59 -208 -323 -337 -548
-165 -290 -250 -457 -381 -748 -126 -279 -155 -320 -220 -303 -41 10 -50 39
-31 99 24 75 120 266 229 460 52 93 101 185 108 205 18 50 17 271 -1 342 -37
148 -115 258 -245 345 -98 65 -109 76 -104 107 10 73 292 132 754 157 110 6
179 14 193 23 12 7 137 184 278 393 457 678 619 907 788 1120 219 274 338 353
415 277z m-2966 -57 c3 -8 1 -15 -3 -15 -5 0 -11 7 -15 15 -3 8 -1 15 3 15 5
0 11 -7 15 -15z m1141 -15 c3 -5 1 -10 -4 -10 -6 0 -11 5 -11 10 0 6 2 10 4
10 3 0 8 -4 11 -10z m5549 -4 c-21 -15 -30 -14 -19 3 3 6 14 11 23 11 13 0 13
-2 -4 -14z m-1034 -6 c0 -5 -4 -10 -10 -10 -5 0 -10 5 -10 10 0 6 5 10 10 10
6 0 10 -4 10 -10z m1120 0 c0 -5 -5 -10 -11 -10 -5 0 -7 5 -4 10 3 6 8 10 11
10 2 0 4 -4 4 -10z m-1250 -50 c0 -5 -5 -10 -11 -10 -5 0 -7 5 -4 10 3 6 8 10
11 10 2 0 4 -4 4 -10z m1348 -15 c-3 -3 -9 2 -12 12 -6 14 -5 15 5 6 7 -7 10
-15 7 -18z m262 15 c0 -5 -4 -10 -10 -10 -5 0 -10 5 -10 10 0 6 5 10 10 10 6
0 10 -4 10 -10z m-1160 -214 c0 -3 -4 -8 -10 -11 -5 -3 -10 -1 -10 4 0 6 5 11
10 11 6 0 10 -2 10 -4z m-250 -16 c0 -5 -2 -10 -4 -10 -3 0 -8 5 -11 10 -3 6
-1 10 4 10 6 0 11 -4 11 -10z m-6520 -44 c0 -3 -4 -8 -10 -11 -5 -3 -10 -1
-10 4 0 6 5 11 10 11 6 0 10 -2 10 -4z m2640 0 c0 -3 -4 -8 -10 -11 -5 -3 -10
-1 -10 4 0 6 5 11 10 11 6 0 10 -2 10 -4z m4985 -76 c3 -6 -1 -7 -9 -4 -18 7
-21 14 -7 14 6 0 13 -4 16 -10z m-3321 -176 c5 -14 4 -15 -9 -4 -17 14 -19 20
-6 20 5 0 12 -7 15 -16z m2166 -422 c0 -10 -19 -45 -43 -77 -40 -56 -107 -161
-107 -169 0 -2 96 -6 213 -10 233 -8 282 -14 282 -36 0 -17 1 -17 -310 -5
l-210 8 -47 -84 c-231 -417 -378 -834 -366 -1042 3 -60 7 -70 32 -90 26 -21
27 -24 11 -37 -26 -21 -67 6 -83 55 -33 97 21 363 132 659 15 38 24 71 21 74
-7 7 -176 -57 -243 -93 -54 -29 -57 -32 -64 -77 -15 -108 -97 -225 -186 -267
-77 -36 -142 -8 -142 62 0 67 105 181 218 235 17 9 32 23 32 31 0 9 -18 43
-40 76 -45 68 -50 104 -20 152 49 81 241 149 313 112 29 -16 37 -28 37 -64 0
-58 -55 -109 -85 -79 -15 15 -15 18 4 38 25 26 27 61 5 70 -69 26 -224 -53
-224 -114 0 -13 19 -53 42 -89 23 -36 43 -67 44 -69 1 -1 53 17 115 41 63 24
137 50 165 57 45 12 53 17 64 49 7 20 50 116 96 214 67 143 80 179 68 184 -26
10 -605 -5 -674 -17 -62 -11 -110 -7 -110 8 1 32 15 34 411 38 217 3 399 7
405 9 6 2 31 39 54 82 61 112 117 191 137 195 26 6 53 -10 53 -30z m1432 -49
c70 -63 -57 -289 -301 -534 -145 -144 -146 -146 -188 -245 -99 -236 -142 -563
-78 -588 25 -9 18 -36 -10 -36 -83 0 -84 202 -2 495 19 66 30 122 25 123 -4 2
-32 -18 -61 -43 -147 -133 -283 -189 -331 -136 -18 20 -24 90 -11 132 9 26 2
23 -74 -39 -88 -71 -181 -101 -253 -82 -44 13 -57 27 -71 84 l-12 45 -65 -55
c-69 -59 -133 -94 -169 -94 -73 0 -112 68 -92 161 21 95 107 256 150 279 15 7
25 5 42 -9 l22 -18 -28 -49 c-108 -186 -144 -276 -124 -300 12 -15 46 -10 92
13 44 22 171 148 213 211 56 83 63 90 85 85 28 -8 24 -37 -16 -128 -44 -100
-47 -157 -9 -181 60 -40 207 33 324 159 151 163 195 204 242 221 88 34 180 -1
194 -74 4 -17 10 -33 15 -35 4 -3 45 72 92 167 182 376 322 541 399 471z m92
-326 c25 -18 17 -49 -17 -65 -36 -17 -74 -8 -82 19 -15 45 56 77 99 46z m-123
-167 c29 -16 23 -40 -27 -116 -55 -83 -122 -217 -130 -260 -22 -116 177 -63
363 98 37 32 81 80 96 106 58 94 118 142 179 142 68 0 102 -52 96 -144 l-3
-56 33 -6 c42 -8 120 2 167 22 40 16 55 13 36 -9 -21 -26 -116 -49 -185 -45
l-64 3 -21 -43 c-27 -55 -92 -126 -135 -146 -43 -20 -95 -20 -123 -1 -29 20
-46 86 -38 139 l7 41 -33 -31 c-109 -99 -216 -155 -311 -162 -64 -4 -68 -3
-97 26 -56 55 -38 146 60 319 42 72 89 133 104 133 3 0 15 -5 26 -10z m-6916
-310 c3 -5 1 -10 -4 -10 -6 0 -11 5 -11 10 0 6 2 10 4 10 3 0 8 -4 11 -10z
m-125 -354 c0 -3 -4 -8 -10 -11 -5 -3 -10 -1 -10 4 0 6 5 11 10 11 6 0 10 -2
10 -4z m120 -130 c0 -3 -4 -8 -10 -11 -5 -3 -10 -1 -10 4 0 6 5 11 10 11 6 0
10 -2 10 -4z m2732 -1817 c60 -43 85 -140 54 -212 -43 -103 -191 -141 -282
-72 -42 32 -73 94 -74 146 0 49 39 120 80 143 66 39 163 36 222 -5z m-1190
-143 c43 -94 78 -171 78 -173 0 -2 -16 -3 -35 -3 -32 0 -37 4 -51 40 l-16 40
-88 0 -87 0 -18 -40 c-15 -33 -23 -40 -47 -40 -15 0 -28 4 -28 10 0 10 109
259 136 312 13 24 20 29 46 26 31 -3 35 -9 110 -172z m300 58 l93 -115 3 115
3 116 29 0 30 0 0 -176 0 -175 -27 3 c-21 2 -48 29 -118 115 l-90 112 -3 -115
-3 -115 -32 3 -32 3 -3 173 -2 172 29 0 c26 0 42 -15 123 -116z m526 89 c-3
-27 -5 -28 -55 -26 l-53 2 0 -150 0 -150 -32 3 -33 3 -5 145 -5 145 -52 3
c-49 3 -53 5 -53 28 l0 24 146 0 145 0 -3 -27z m677 -88 l90 -114 3 115 3 114
34 0 34 0 -2 -172 -2 -173 -25 -3 c-22 -2 -39 14 -119 113 -51 63 -95 115 -98
115 -2 0 -3 -51 -2 -112 l2 -113 -32 -3 -31 -3 0 175 0 176 28 0 c22 -1 42
-19 117 -115z m535 90 c0 -25 0 -25 -95 -25 l-95 0 0 -45 0 -45 86 0 85 0 -3
-27 c-3 -28 -4 -28 -85 -31 l-83 -3 0 -44 0 -45 101 0 100 0 -3 -27 -3 -28
-127 -3 -128 -3 0 176 0 175 125 0 125 0 0 -25z m170 -120 l0 -145 90 0 90 0
0 -30 0 -30 -120 0 -120 0 0 175 0 175 30 0 30 0 0 -145z m330 0 l0 -144 88
-3 c85 -3 87 -3 87 -28 l0 -25 -122 -3 -123 -3 0 176 0 175 35 0 35 0 0 -145z
m512 -29 c43 -94 78 -171 78 -173 0 -2 -15 -3 -33 -3 -30 0 -36 5 -52 40 l-18
40 -87 0 -87 0 -18 -40 c-16 -35 -22 -40 -51 -40 -40 0 -43 -14 44 175 32 72
62 140 66 153 7 19 14 23 44 20 l36 -3 78 -169z m388 29 l0 -145 90 0 90 0 0
-30 0 -30 -120 0 -120 0 0 175 0 175 30 0 30 0 0 -145z m330 -31 l0 -175 -32
3 -33 3 -3 173 -2 172 35 0 35 0 0 -176z m339 160 c88 -35 95 -166 11 -209
-16 -8 -58 -16 -92 -18 l-63 -2 -5 -50 c-5 -48 -6 -50 -37 -53 l-33 -3 0 175
0 176 90 0 c58 0 103 -6 129 -16z m413 -144 c90 -201 87 -190 48 -190 -27 0
-34 5 -48 40 l-17 40 -87 0 -88 0 -17 -37 c-15 -31 -24 -39 -52 -41 -25 -3
-32 0 -29 10 3 7 38 86 78 176 l73 163 35 -3 c34 -3 35 -4 104 -158z m372 146
c47 -19 66 -51 66 -109 0 -41 -5 -53 -31 -79 l-30 -31 35 -53 c20 -30 36 -55
36 -57 0 -1 -13 -4 -30 -5 -25 -2 -35 6 -70 53 -40 54 -43 56 -83 53 l-42 -3
-3 -52 c-3 -51 -4 -53 -33 -53 l-29 0 0 175 0 175 90 0 c55 0 104 -6 124 -14z
m236 -161 l0 -175 -30 0 -30 0 0 175 0 175 30 0 30 0 0 -175z m-5040 -275 c0
-5 -5 -10 -11 -10 -5 0 -7 5 -4 10 3 6 8 10 11 10 2 0 4 -4 4 -10z m2175 -60
c3 -5 1 -10 -4 -10 -6 0 -11 5 -11 10 0 6 2 10 4 10 3 0 8 -4 11 -10z m2849
-1192 c-5 -8 0 -9 17 -5 l24 6 -24 -20 c-25 -20 -46 -26 -36 -9 3 6 1 10 -6
10 -7 0 -4 7 7 15 23 18 27 18 18 3z m-58 -37 c-4 -5 -3 -11 1 -14 5 -2 3 -2
-4 -1 -7 2 -15 -5 -18 -16 -5 -16 -100 -90 -116 -90 -3 0 -5 10 -4 21 1 20 50
58 103 79 12 5 22 14 22 20 0 5 5 10 11 10 5 0 8 -4 5 -9z m-160 -116 c0 -14
-5 -25 -11 -25 -13 0 -41 18 -35 22 7 4 45 27 46 27 1 1 1 -10 0 -24z m-56
-55 c0 -5 -5 -10 -11 -10 -5 0 -7 5 -4 10 3 6 8 10 11 10 2 0 4 -4 4 -10z
m-375 -40 c3 -6 -1 -7 -9 -4 -18 7 -21 14 -7 14 6 0 13 -4 16 -10z m2644 -547
c7 -21 24 -55 38 -75 28 -41 113 -103 156 -114 35 -8 35 -21 -2 -29 -74 -16
-178 -120 -197 -197 -8 -36 -21 -36 -29 1 -16 73 -122 179 -197 197 -28 6 -39
24 -15 24 7 0 37 12 66 26 58 29 134 120 146 174 9 40 18 38 34 -7z"/>
<path d="M2015 5573 c-119 -10 -299 -36 -363 -52 -73 -19 -102 -34 -102 -54 0
-5 35 -44 78 -86 158 -154 232 -315 232 -504 l0 -60 98 164 c98 163 161 264
294 472 38 59 66 112 63 117 -6 9 -204 11 -300 3z"/>
<path d="M5659 5419 c-60 -43 -128 -109 -145 -141 -31 -58 14 -83 81 -44 64
38 112 106 125 179 9 46 -2 48 -61 6z"/>
<path d="M7905 6265 c-24 -25 -64 -76 -89 -114 -55 -82 -180 -320 -173 -327
11 -11 46 17 117 93 144 154 245 324 224 377 -10 27 -33 18 -79 -29z"/>
<path d="M7310 5712 c-86 -42 -237 -236 -228 -295 2 -18 10 -23 43 -25 53 -4
144 50 242 141 79 76 103 120 82 159 -7 13 -17 26 -23 30 -19 13 -80 8 -116
-10z"/>
<path d="M8448 5729 c-10 -5 -18 -16 -18 -24 0 -22 45 -69 58 -61 15 9 15 51
2 77 -12 22 -18 23 -42 8z"/>
<path d="M8346 5659 c-53 -61 -86 -134 -86 -192 0 -53 12 -64 56 -53 33 9 116
95 138 144 l17 39 -33 34 c-18 19 -38 43 -43 53 -10 17 -14 15 -49 -25z"/>
<path d="M3613 3195 c-39 -17 -63 -61 -63 -116 0 -33 6 -47 34 -75 30 -30 40
-34 84 -34 43 0 55 5 80 30 54 54 46 145 -17 187 -39 26 -72 28 -118 8z"/>
<path d="M2446 3118 c-14 -35 -26 -66 -26 -70 0 -5 27 -8 60 -8 33 0 60 3 60
8 0 14 -53 132 -60 132 -4 0 -19 -28 -34 -62z"/>
<path d="M5501 3128 c-17 -37 -31 -72 -31 -78 0 -6 26 -10 60 -10 33 0 60 4
60 8 0 4 -13 39 -29 77 l-30 70 -30 -67z"/>
<path d="M6550 3141 l0 -71 53 0 c67 0 97 20 97 64 0 46 -28 68 -95 74 l-55 4
0 -71z"/>
<path d="M6973 3119 l-31 -74 60 -3 c33 -2 62 -1 64 1 3 2 -10 37 -29 77 l-33
74 -31 -75z"/>
<path d="M7338 3204 c-5 -4 -8 -36 -8 -71 l0 -63 60 0 c47 0 64 4 80 20 25 25
26 72 2 93 -19 18 -122 34 -134 21z"/>
<path d="M7545 1450 c-21 -23 -9 -26 18 -6 10 8 14 17 9 20 -5 3 -17 -3 -27
-14z"/>
</g>
</svg>
